<?xml version="1.0" standalone="no"?>
<!DOCTYPE svg PUBLIC "-//W3C//DTD SVG 20010904//EN"
 "http://www.w3.org/TR/2001/REC-SVG-20010904/DTD/svg10.dtd">
<svg version="1.0" xmlns="http://www.w3.org/2000/svg"
 width="512.000000pt" height="512.000000pt" viewBox="0 0 512.000000 512.000000"
 preserveAspectRatio="xMidYMid meet">

<g transform="translate(0.000000,512.000000) scale(0.100000,-0.100000)"
fill="#000000" stroke="none">
<path d="M2193 4066 c-142 -33 -285 -140 -350 -262 -50 -94 -63 -165 -63 -356
l0 -168 -26 0 c-44 0 -102 -40 -124 -85 -19 -39 -20 -62 -20 -486 0 -441 0
-444 23 -484 14 -26 37 -48 67 -62 l44 -23 541 0 c345 0 554 4 578 11 20 5 54
27 74 47 l37 37 -169 3 c-168 2 -168 2 -195 -23 -30 -29 -47 -31 -78 -9 -43
30 -17 104 36 104 12 0 31 -9 42 -20 18 -18 33 -20 195 -20 133 0 175 3 175
13 0 6 3 22 6 35 l6 22 -276 0 c-173 0 -276 -4 -276 -10 0 -5 -11 -17 -25 -26
-29 -19 -60 -11 -81 21 -13 19 -13 28 -3 47 23 43 64 51 94 18 17 -19 31 -20
292 -20 190 0 273 3 273 11 0 6 -17 28 -37 50 l-37 39 -122 0 c-101 0 -124 -3
-135 -16 -12 -15 -37 -16 -232 -11 -121 3 -221 8 -224 11 -3 3 4 57 16 121
l22 116 -30 34 c-68 78 -43 194 49 227 27 9 30 14 30 54 l0 44 169 0 c141 0
170 2 175 15 3 8 17 20 30 27 37 16 76 -11 76 -55 0 -18 -5 -38 -12 -45 -19
-19 -66 -14 -88 8 -18 18 -33 20 -168 20 l-149 0 5 -30 4 -30 110 0 109 0 58
-55 58 -55 116 0 116 0 16 30 c22 42 19 50 -16 50 -21 0 -37 -8 -51 -25 -25
-32 -71 -34 -92 -3 -23 32 -20 54 10 77 35 27 50 26 80 -4 18 -18 36 -25 64
-25 22 0 40 2 40 4 0 2 7 20 16 41 l15 37 -23 -16 c-42 -30 -67 -20 -133 49
l-63 65 -199 0 -199 0 -39 40 c-26 27 -36 43 -29 50 7 7 23 -3 49 -30 l39 -40
198 0 198 0 60 -60 c33 -33 65 -60 70 -60 25 0 80 46 80 68 0 19 -5 22 -42 22
-37 0 -47 5 -88 50 l-46 50 -195 0 -195 0 -34 35 -34 35 -189 0 -189 0 4 173
c3 165 4 174 31 229 77 157 257 224 414 153 110 -49 177 -143 189 -264 l7 -61
100 0 100 0 -6 73 c-15 173 -109 325 -258 415 -99 60 -251 84 -366 58z"/>
<path d="M2828 3463 c7 -3 16 -2 19 1 4 3 -2 6 -13 5 -11 0 -14 -3 -6 -6z"/>
<path d="M3232 3386 c7 -8 15 -12 17 -11 5 6 -10 25 -20 25 -5 0 -4 -6 3 -14z"/>
<path d="M2088 3363 c7 -3 16 -2 19 1 4 3 -2 6 -13 5 -11 0 -14 -3 -6 -6z"/>
<path d="M2698 3353 c7 -3 16 -2 19 1 4 3 -2 6 -13 5 -11 0 -14 -3 -6 -6z"/>
<path d="M2548 3333 c7 -3 16 -2 19 1 4 3 -2 6 -13 5 -11 0 -14 -3 -6 -6z"/>
<path d="M2414 3271 c18 -20 30 -21 216 -21 l197 0 42 -50 c36 -42 48 -50 77
-50 41 0 43 13 12 60 -51 74 -52 75 -321 78 l-241 3 18 -20z"/>
<path d="M3126 3225 c-9 -26 -7 -32 5 -12 6 10 9 21 6 23 -2 3 -7 -2 -11 -11z"/>
<path d="M3370 3091 c0 -6 4 -13 10 -16 6 -3 7 1 4 9 -7 18 -14 21 -14 7z"/>
<path d="M2665 3053 c-15 -14 -15 -18 -1 -31 18 -19 46 -9 46 17 0 26 -26 34
-45 14z"/>
<path d="M3046 3045 c-9 -26 -7 -32 5 -12 6 10 9 21 6 23 -2 3 -7 -2 -11 -11z"/>
<path d="M2784 2956 c-24 -18 -11 -48 18 -44 14 2 24 11 26 24 4 26 -20 37
-44 20z"/>
<path d="M2431 2890 c26 -49 21 -108 -11 -152 l-21 -28 108 0 c97 0 109 2 121
20 14 23 70 28 90 8 15 -15 16 -53 2 -79 -15 -27 -75 -26 -92 1 -12 18 -24 20
-131 20 -116 0 -117 0 -113 -22 3 -13 10 -50 16 -83 21 -117 7 -105 123 -105
74 1 107 5 121 15 15 11 49 15 133 15 62 0 113 2 113 5 0 2 -5 16 -12 30 -11
25 -12 25 -131 25 -115 0 -120 -1 -139 -25 -36 -46 -98 -27 -98 30 0 46 38 74
76 57 13 -7 27 -17 29 -24 4 -10 35 -12 121 -10 104 3 115 5 109 20 -19 48
-16 80 13 145 l31 67 -118 0 -118 0 -55 55 -55 55 -67 0 -66 0 21 -40z"/>
<path d="M2650 2694 c0 -21 4 -25 23 -22 14 2 23 11 25 26 3 18 -1 22 -22 22
-21 0 -26 -5 -26 -26z"/>
<path d="M2958 2683 c7 -3 16 -2 19 1 4 3 -2 6 -13 5 -11 0 -14 -3 -6 -6z"/>
<path d="M3458 2683 c7 -3 16 -2 19 1 4 3 -2 6 -13 5 -11 0 -14 -3 -6 -6z"/>
<path d="M2551 2590 c-19 -11 -9 -45 14 -45 13 0 21 8 23 21 3 23 -17 37 -37
24z"/>
<path d="M3454 2468 l-19 -23 23 19 c21 18 27 26 19 26 -2 0 -12 -10 -23 -22z"/>
<path d="M2364 2366 c-9 -24 4 -48 23 -44 24 4 24 52 0 56 -9 2 -20 -4 -23
-12z"/>
<path d="M2547 2273 c-13 -12 -7 -41 10 -47 9 -4 23 0 31 8 13 12 13 18 2 30
-13 17 -32 21 -43 9z"/>
<path d="M1659 1654 c0 -137 -2 -257 -4 -268 -3 -17 4 -18 118 -14 106 3 128
7 167 28 83 46 115 123 108 260 -5 108 -31 161 -102 205 -47 28 -56 30 -168
34 l-118 3 -1 -248z m250 140 c39 -33 54 -89 49 -179 -8 -121 -42 -161 -145
-171 l-63 -7 0 192 0 191 64 0 c55 0 69 -4 95 -26z"/>
<path d="M2140 1636 l0 -266 45 0 45 0 0 104 0 104 93 4 c107 4 144 21 176 78
43 77 18 176 -55 214 -32 18 -61 22 -171 24 l-133 4 0 -266z m269 158 c28 -36
27 -79 -4 -109 -21 -22 -33 -25 -100 -25 l-75 0 0 80 0 80 79 0 c74 0 81 -2
100 -26z"/>
<path d="M2600 1636 l0 -266 96 0 c128 0 177 14 229 64 52 50 65 91 65 207 0
113 -31 179 -104 224 -46 28 -57 30 -168 34 l-118 3 0 -266z m249 158 c36 -30
51 -77 51 -159 0 -82 -15 -129 -51 -159 -26 -22 -40 -26 -95 -26 l-64 0 0 185
0 185 64 0 c55 0 69 -4 95 -26z"/>
<path d="M3080 1636 l0 -266 45 0 45 0 0 105 0 105 74 0 c82 0 130 13 164 44
76 68 68 196 -17 248 -32 20 -52 23 -173 26 l-138 4 0 -266z m269 158 c28 -36
27 -79 -4 -109 -21 -22 -33 -25 -100 -25 l-75 0 0 80 0 80 79 0 c74 0 81 -2
100 -26z"/>
<path d="M1730 1165 l0 -115 25 0 25 0 0 115 0 115 -25 0 -25 0 0 -115z"/>
<path d="M1830 1165 c0 -108 1 -115 20 -115 17 0 19 8 22 78 l3 77 49 -77 c42
-68 52 -78 77 -78 l29 0 0 115 0 115 -25 0 c-23 0 -24 -2 -27 -80 l-3 -80 -49
80 c-39 64 -53 80 -72 80 -24 0 -24 -1 -24 -115z"/>
<path d="M2070 1165 l0 -115 60 0 c99 0 140 35 140 118 0 71 -55 112 -150 112
l-50 0 0 -115z m130 55 c25 -25 27 -86 3 -112 -9 -10 -30 -18 -50 -18 l-33 0
0 75 0 75 30 0 c17 0 39 -9 50 -20z"/>
<path d="M2310 1165 l0 -115 25 0 25 0 0 115 0 115 -25 0 -25 0 0 -115z"/>
<path d="M2437 1173 c-20 -59 -37 -111 -37 -115 0 -18 42 -7 47 12 4 17 14 20
55 20 41 0 51 -3 55 -20 3 -13 14 -20 29 -20 13 0 24 3 24 8 0 4 -18 54 -39
112 -36 98 -40 105 -67 108 -28 3 -30 0 -67 -105z m97 -30 c7 -21 4 -23 -29
-23 -34 0 -37 2 -31 25 3 13 11 37 17 52 l11 28 13 -30 c7 -16 16 -40 19 -52z"/>
<path d="M2650 1165 c0 -108 1 -115 20 -115 18 0 20 7 20 78 l0 77 50 -77 c40
-63 54 -78 75 -78 l25 0 0 115 c0 108 -1 115 -20 115 -17 0 -19 -8 -22 -82
l-3 -83 -52 83 c-38 58 -58 82 -73 82 -19 0 -20 -6 -20 -115z"/>
<path d="M3014 1270 c-36 -14 -64 -59 -64 -102 0 -76 39 -117 113 -118 42 0
53 5 80 33 l32 32 -29 3 c-19 2 -32 -2 -38 -12 -12 -22 -71 -21 -91 2 -23 26
-22 94 1 115 25 23 65 21 87 -3 10 -11 29 -20 42 -20 23 0 23 1 9 29 -22 42
-90 62 -142 41z"/>
<path d="M3260 1275 c0 -2 -18 -54 -39 -115 l-40 -110 24 0 c15 0 26 7 30 20
5 16 15 20 55 20 40 0 50 -4 55 -20 4 -13 15 -20 32 -20 20 0 24 4 18 18 -4 9
-23 61 -42 115 -34 92 -37 97 -64 97 -16 0 -29 -2 -29 -5z m52 -105 l16 -50
-35 0 c-32 0 -35 2 -29 23 4 12 9 34 12 50 9 39 18 34 36 -23z"/>
</g>
</svg>
